<?xml version="1.0" encoding="UTF-8" standalone="no"?>
<!-- Created with Inkscape (http://www.inkscape.org/) -->

<svg
   width="512"
   height="512"
   viewBox="0 0 512 512"
   version="1.1"
   id="svg1"
   xml:space="preserve"
   inkscape:version="1.4 (e7c3feb100, 2024-10-09)"
   sodipodi:docname="person.svg"
   xmlns:inkscape="http://www.inkscape.org/namespaces/inkscape"
   xmlns:sodipodi="http://sodipodi.sourceforge.net/DTD/sodipodi-0.dtd"
   xmlns="http://www.w3.org/2000/svg"
   xmlns:svg="http://www.w3.org/2000/svg"><sodipodi:namedview
     id="namedview1"
     pagecolor="#ffffff"
     bordercolor="#000000"
     borderopacity="0.25"
     inkscape:showpageshadow="2"
     inkscape:pageopacity="0.0"
     inkscape:pagecheckerboard="0"
     inkscape:deskcolor="#d1d1d1"
     inkscape:document-units="px"
     inkscape:zoom="1.4359787"
     inkscape:cx="253.48565"
     inkscape:cy="268.10982"
     inkscape:window-width="1258"
     inkscape:window-height="1027"
     inkscape:window-x="20"
     inkscape:window-y="20"
     inkscape:window-maximized="0"
     inkscape:current-layer="layer1" /><defs
     id="defs1" /><g
     inkscape:label="Layer 1"
     inkscape:groupmode="layer"
     id="layer1"><g
       id="g19530"><path
         style="fill:#fcd5b2"
         d="m 194.09219,471.05465 c -3.42438,-0.72851 -3.42292,-0.71123 -4.86715,-57.60432 -1.27568,-50.25328 -1.16993,-51.88024 4.90994,-75.5403 4.59944,-17.89888 5.44694,-55.02467 1.65971,-72.705 -1.53837,-7.18174 -7.25854,21.95228 -8.35605,42.55914 -0.92964,17.45484 -2.94739,25.95165 -12.19521,51.35459 -9.47984,26.04027 -9.92675,28.1632 -6.82925,32.4406 5.83095,8.05205 8.67771,18.20917 8.71019,31.07763 0.0221,8.73405 -6.82874,8.10698 -8.60436,-0.78758 -1.07536,-5.38674 -3.29454,-7.3671 -4.38952,-3.91713 -1.14462,3.60637 0.58588,7.84784 5.82395,14.27454 10.35193,12.70101 3.12372,14.3861 -14.34418,3.34401 -7.83373,-4.95198 -9.22306,-10.06283 -9.92048,-36.49401 -0.32002,-12.12825 -1.01967,-31.57756 -1.55476,-43.22068 -1.49945,-32.62623 -0.72599,-41.05077 6.59998,-71.88745 1.79312,-7.54763 2.37056,-13.17917 3.12028,-30.43089 0.79589,-18.31419 1.23785,-22.35894 3.27695,-29.98985 1.9341,-7.23797 2.39525,-11.03616 2.57022,-21.16932 0.5523,-31.98426 5.45274,-36.79474 52.12974,-51.17272 23.69828,-7.29982 22.83451,-6.34891 22.83451,-25.13794 0,-10.15657 0,-10.15657 -6.27853,-23.37445 -8.54856,-17.996852 -8.27537,-17.123772 -8.27537,-26.446787 0,-15.278974 3.58065,-23.751081 12.78754,-30.256366 2.54044,-1.794993 5.25815,-4.371662 6.03936,-5.725931 8.59134,-14.893542 77.44799,-1.234604 75.23323,14.923846 -0.36202,2.641259 0.13874,5.851287 1.72623,11.065475 1.81672,5.967114 2.13731,8.420386 1.70906,13.078255 -0.51827,5.636948 -0.4599,5.842291 3.47098,12.211841 5.27692,8.550657 4.94591,11.603637 -1.25807,11.603637 -2.08626,0 -3.02522,1.93456 -3.92992,8.09692 -0.33329,2.27023 -1.37763,5.10867 -2.32075,6.30766 -1.20614,1.53336 -1.56115,2.94806 -1.19687,4.76947 1.02907,5.14537 -2.29857,7.3692 -12.41909,8.29953 -10.55975,0.97071 -11.36357,1.49962 -10.82335,7.12177 0.61584,6.40925 1.85515,7.21829 20.00535,13.05995 47.25975,15.21058 54.48024,22.51306 52.74107,53.33995 -0.3464,6.14002 -0.0668,9.33731 1.23425,14.11288 2.9522,10.83632 4.26946,21.60078 4.80324,39.25143 0.44678,14.77415 0.88125,18.71468 3.08046,27.9389 7.1301,29.90611 7.85518,38.59041 6.14498,73.59855 -0.44116,9.03054 -1.06132,26.49522 -1.37814,38.8104 -0.79441,30.88031 -1.95077,33.91887 -15.58871,40.96259 -13.59197,7.01998 -17.56905,4.43547 -9.16759,-5.95756 6.69031,-8.27625 8.88817,-16.14202 4.51042,-16.14202 -1.44788,0 -1.88944,0.85083 -2.51769,4.8513 -1.49915,9.54604 -8.51961,10.30975 -8.5138,0.92616 0.008,-13.15822 2.32893,-22.42533 7.2675,-29.01987 3.92758,-5.24454 3.76036,-9.32193 -0.87361,-21.30135 -12.15332,-31.41795 -12.41868,-32.23505 -14.62479,-45.03282 -1.20805,-7.00797 -2.40478,-17.70331 -2.65941,-23.76744 -0.25462,-6.06412 -1.2597,-14.79646 -2.23352,-19.4052 -0.97382,-4.60874 -2.20709,-11.33979 -2.7406,-14.95789 -2.29275,-15.54862 -4.12542,-4.5462 -4.97646,29.87611 -0.55799,22.5691 -0.55799,22.5691 4.04498,40.65122 6.10213,23.97132 6.84689,57.69769 2.60947,118.16904 -1.10369,15.75061 2.35599,14.21973 -31.4954,13.93645 -32.6228,-0.27299 -29.68891,0.66978 -30.56967,-9.8232 -1.06088,-12.63894 -5.90767,-41.55289 -7.17844,-42.82366 -1.73791,-1.73792 -5.2927,17.15542 -7.45428,39.61875 -0.77078,8.00998 -1.44038,11.32725 -2.44812,12.12825 -1.48167,1.17769 -51.71094,1.46897 -57.06045,0.33089 z"
         id="path19538" /><path
         style="fill:#f0a691"
         d="m 258.70661,414.51173 c -1.24193,-0.97691 -3.16353,-3.96082 -4.27023,-6.63093 -1.1067,-2.6701 -2.30561,-4.85473 -2.66425,-4.85473 -8.02367,0 -8.29789,-13.05456 -0.31904,-15.18857 4.37651,-1.17054 4.97145,-2.70741 2.50517,-6.47142 -1.00602,-1.53539 -1.29044,-3.28333 -0.94876,-5.83078 0.953,-7.10509 -1.00476,-14.40292 -3.28831,-12.25765 -3.09417,2.90683 -7.23551,2.40773 -10.72537,-1.29259 -2.93561,-3.11266 -2.93561,-3.11266 -5.89669,0.11843 -3.15945,3.44755 -5.32326,3.95974 -11.44273,2.70854 -4.22881,-0.86463 -4.29511,0.30202 -0.27036,4.75694 4.54894,5.03513 5.4707,12.45586 1.6156,13.00659 -1.52127,0.21732 -2.05443,-0.26258 -2.44987,-2.20514 -1.33869,-6.57609 -3.24768,-8.679 -7.60436,-8.37684 -8.94987,0.62073 -16.99342,-24.8788 -9.71202,-30.78886 2.19875,-1.78465 2.21128,-3.12701 0.078,-8.35401 -2.03737,-4.99193 1.94923,-13.8811 6.9488,-15.49417 0.84261,-0.27186 0.30487,-1.67222 -1.90071,-4.94969 -7.94257,-11.80262 -10.49228,-31.93582 -5.31285,-41.95174 1.24271,-2.40312 1.22136,-2.51312 -0.3885,-2.00217 -4.94913,1.57079 -4.46457,-3.92409 0.57266,-6.49389 3.49317,-1.78208 3.49317,-1.78208 2.03187,-6.87577 -7.95981,-27.74587 5.36825,-70.79192 26.23274,-84.72469 13.30074,-8.88189 18.92687,-7.02323 22.7142,7.50393 0.56228,2.15679 1.04536,2.65716 1.99132,2.06262 2.32149,-1.45906 1.72715,-31.87759 -0.6827,-34.94122 -2.60297,-3.30913 -2.47592,-8.08259 0.31581,-11.86657 2.03644,-2.76023 2.20617,-3.73496 2.21865,-12.74065 0.017,-12.2708 -1.36493,-10.7688 17.69931,-19.23704 20.28417,-9.010132 39.62073,-11.124292 39.62073,-4.331932 0,3.084245 -1.84427,3.673592 -11.49592,3.673592 -8.92034,0 -20.10325,3.07941 -23.49306,6.46922 -0.32297,0.32297 5.06197,0.58722 11.96654,0.58722 12.88269,0 15.96601,0.65329 15.96601,3.38284 0,3.4457 -1.40631,3.6736 -22.66881,3.6736 -21.20923,0 -28.09855,7.09463 -18.2523,18.79623 2.80194,3.32992 2.59759,9.18173 -0.4333,12.40796 -1.8694,1.98988 -2.95362,29.32588 -1.33087,33.55468 1.13759,2.96453 2.78721,1.27368 3.80512,-3.90024 4.9648,-25.23562 38.04099,-0.29931 47.38836,35.72635 3.12015,12.02535 3.61344,36.87644 0.89293,44.98479 -1.47973,4.41027 -1.47973,4.41027 1.25662,6.74781 6.11285,5.22191 1.3323,7.73185 -5.76005,3.02421 -6.81969,-4.52665 -7.83309,-4.36056 -4.79647,0.78613 1.88582,3.19622 2.03988,10.73536 0.32911,16.10527 -0.61633,1.9346 -0.58194,1.94377 2.15921,0.57631 5.54559,-2.76651 11.52332,1.24026 11.52332,7.72387 0,9.12826 -7.1936,17.25908 -18.96417,21.43493 -1.55486,0.55161 -1.39791,0.7805 1.32308,1.92958 6.12324,2.58586 8.82054,6.2127 8.82054,11.86026 0,3.4819 0.42347,5.36274 1.38755,6.16286 6.53933,5.42716 6.21654,16.34977 -0.59633,20.17882 -2.93089,1.64725 -3.43738,2.36906 -3.43738,4.89865 0,5.75791 -9.90301,9.79417 -17.47523,7.12254 -4.51686,-1.59364 -5.6765,-1.23337 -6.95799,2.16167 -1.18964,3.15174 -4.46704,4.63485 -10.19617,4.61405 -4.71349,-0.0171 -4.4007,-0.52698 -5.81815,9.48377 -0.44649,3.15335 -0.55848,5.83324 -0.24887,5.95532 9.42633,3.71685 10.4546,9.79066 2.5691,15.17521 -1.97655,1.34968 -4.2614,4.15428 -5.73335,7.03758 -3.26804,6.40153 -5.37324,7.74754 -8.39716,5.36892 z m -30.67324,-61.72764 c 2.20285,-4.31796 2.21071,-4.70035 0.0827,-4.02493 -5.37568,1.70617 -11.42826,-5.25383 -10.21108,-11.74196 0.57433,-3.06146 0.55763,-3.08219 -1.42354,-1.76675 -3.90332,2.59171 -4.0783,3.95075 -0.92725,7.20181 2.34984,2.42442 2.99189,3.91759 3.4048,7.9183 0.48753,4.72369 0.62412,4.94502 3.257,5.27738 1.51147,0.1908 3.03776,0.41043 3.39175,0.48807 0.35398,0.0776 1.44553,-1.43072 2.42565,-3.35192 z m 36.32536,-1.35822 c 0.28029,-3.32037 0.16793,-3.51015 -1.90731,-3.22146 -2.89938,0.40334 -2.8373,0.16845 -1.16778,4.41864 1.67066,4.25308 2.6471,3.87293 3.07509,-1.19718 z m 37.78515,-12.67084 c 0,-0.90484 0.83184,-2.70267 1.84853,-3.99518 2.41359,-3.06838 1.63908,-4.94432 -2.04136,-4.94432 -2.9713,0 -4.3521,6.04119 -2.16725,9.48209 1.0401,1.63805 2.36008,1.33458 2.36008,-0.54259 z m -6.31459,-23.38996 c 2.84869,-2.10169 2.84869,-2.10169 0.39188,-2.71488 -3.19297,-0.79693 -5.544,-2.95808 -5.544,-5.09624 0,-0.9355 -0.29769,-1.55586 -0.66154,-1.37858 -5.87334,2.86165 -5.64805,2.49653 -3.27826,5.31286 1.19663,1.42212 2.17569,3.1215 2.17569,3.7764 0,1.01139 0.90338,1.54165 3.57737,2.09982 0.2696,0.0563 1.77209,-0.84345 3.33886,-1.99938 z m -57.19334,-5.45877 c 0,-0.27722 -0.55995,-1.06398 -1.24433,-1.74836 -0.68438,-0.68438 -1.43297,-1.74757 -1.66354,-2.36265 -0.27867,-0.74337 -1.40838,-0.15719 -3.3695,1.74836 -2.95028,2.86668 -2.95028,2.86668 1.66354,2.86668 2.53761,0 4.61383,-0.22681 4.61383,-0.50403 z m 15.81436,-15.496 c 7.027,-2.24231 7.92458,-2.78542 9.26231,-5.60448 2.49021,-5.24772 1.4642,-7.47649 -1.78603,-3.87974 -2.09407,2.31733 -8.64063,5.63522 -12.62192,6.39698 -3.12434,0.59779 -5.37639,1.98775 -5.37639,3.31829 0,1.10597 6.79998,0.95665 10.52203,-0.23105 z m -20.66566,-34.91232 c 3.39591,-0.76781 5.69114,-1.56315 5.10052,-1.76741 -1.37934,-0.47704 -15.26601,2.32185 -17.00826,3.42804 -1.58457,1.00609 2.84606,0.3882 11.90774,-1.66063 z m 21.83085,-9.56365 c 6.98792,-0.61757 6.93099,-0.46802 2.52051,-6.62136 -7.05199,-9.83869 -7.83017,-10.16436 -9.77213,-4.0897 -0.58841,1.8406 -2.42252,5.11867 -4.0758,7.28458 -3.77305,4.94296 -3.81322,4.79579 1.18379,4.33719 2.30437,-0.21149 6.869,-0.6213 10.14363,-0.91071 z m 2.42565,-58.25807 c 0,-1.64421 -0.31754,-2.98947 -0.70564,-2.98947 -1.71672,0 -2.82035,2.42213 -2.79323,6.13028 0.0293,4.01335 0.0293,4.01335 1.76411,1.93101 0.97415,-1.16933 1.73476,-3.39309 1.73476,-5.07182 z m -9.0985,-89.12075 c -0.31459,-0.31458 -0.33771,-1.50536 -0.0514,-2.646162 0.46376,-1.847752 0.21818,-2.074189 -2.24953,-2.074189 -6.19148,0 -10.65195,-3.444569 -10.65195,-8.225909 0,-1.576379 -0.60138,-2.318442 -2.20513,-2.720957 -1.61087,-0.404303 -2.20514,-1.143189 -2.20514,-2.741786 0,-1.203582 -0.34217,-2.188331 -0.76038,-2.188331 -5.50547,0 0.14519,-25.027694 6.07563,-26.909941 0.95765,-0.303948 1.74119,-1.085988 1.74119,-1.737866 0,-1.679518 4.98279,-5.663558 7.78596,-6.225338 1.29672,-0.259874 4.34229,-1.141583 6.76794,-1.959354 15.43087,-5.202282 41.8976,2.006483 41.8976,11.411683 0,0.882937 0.36151,1.60534 0.80337,1.60534 5.57315,0 5.001,21.460001 -0.62898,23.590988 -0.82361,0.311743 -2.0528,1.115991 -2.73154,1.787218 -1.18868,1.175533 -2.28985,1.129545 -5.60186,-0.233946 -0.89724,-0.369379 -1.54359,-0.245126 -1.54359,0.296736 0,1.523938 -5.17412,8.725033 -6.68594,9.305172 -4.41132,1.692784 -12.71927,0.0061 -12.71927,-2.582207 0,-0.710627 -0.39692,-1.292048 -0.88205,-1.292048 -0.48513,0 -0.88206,0.605211 -0.88206,1.344913 0,0.739703 -0.89308,1.70884 -1.98462,2.153639 -1.09154,0.444799 -2.91936,1.824211 -4.06183,3.06536 -1.14246,1.241149 -2.34688,2.256634 -2.6765,2.256634 -0.32961,0 -1.3027,1.190774 -2.16242,2.646161 -1.49208,2.5259 -3.15138,3.31033 -4.38751,2.07419 z"
         id="path19537" /><path
         style="fill:#f18f76"
         d="m 259.1492,414.02256 c -0.99598,-0.69761 -2.68093,-3.36756 -3.74433,-5.93322 -1.29751,-3.13047 -2.9333,-5.32025 -4.97316,-6.65741 -7.31102,-4.79249 -5.90744,-11.59434 2.75814,-13.36611 3.18506,-0.65121 3.9326,-3.46435 1.78967,-6.73487 -0.9147,-1.39601 -1.35961,-3.69214 -1.22922,-6.3439 0.51266,-10.42608 -1.4985,-16.20309 -4.52083,-12.98596 -3.32922,3.5438 -9.48127,1.81619 -11.04185,-3.10076 -0.80513,-2.53675 -2.83313,-2.13067 -4.38945,0.87891 -1.96846,3.80659 -4.3235,4.74431 -10.33667,4.11581 -6.46893,-0.67614 -7.39627,0.69675 -3.48195,5.15491 2.96319,3.37489 5.10216,9.1967 4.22181,11.49085 -0.89524,2.33297 -2.65442,1.02938 -3.39026,-2.51226 -1.28728,-6.19572 -3.0516,-7.84432 -7.70935,-7.20372 -8.37672,1.15209 -15.70007,-20.9019 -9.41938,-28.36608 2.72872,-3.24289 2.76664,-3.64457 0.85272,-9.03333 -2.16564,-6.09749 0.74737,-12.95936 6.41654,-15.11477 2.02093,-0.76836 2.02093,-0.76836 -1.38581,-5.87793 -8.05045,-12.07441 -10.4994,-32.70234 -4.99438,-42.06834 2.54077,-4.32274 2.54077,-4.32274 0.44103,-3.69226 -5.98678,1.79761 -7.29059,-1.01957 -1.7743,-3.83377 4.68136,-2.38825 4.74529,-2.56724 3.22387,-9.02686 -7.62011,-32.35327 6.70481,-73.43258 29.58242,-84.83298 9.78479,-4.87596 14.27731,-2.8724 16.29349,7.26656 1.18181,5.94302 3.81404,7.29996 5.63462,2.90469 1.40114,-3.38264 0.97788,-34.33665 -0.48215,-35.26094 -1.88383,-1.19259 -2.19077,-5.77744 -0.57347,-8.56634 1.15908,-1.99875 1.64618,-5.4494 1.9909,-14.10387 0.45638,-11.4577 0.45638,-11.4577 3.10255,-12.7379 26.08816,-12.621336 49.83858,-18.026691 52.19743,-11.879611 0.89549,2.3336 -1.45921,2.968883 -11.18189,3.016807 -8.75418,0.04315 -9.69499,0.232702 -17.17281,3.459954 -11.37546,4.90937 -10.92809,5.34196 5.52459,5.34196 14.67446,0 17.03494,0.59342 15.74383,3.95801 -0.43728,1.13953 -3.5886,1.33431 -21.58772,1.33431 -20.08748,0 -34.58754,15.25074 -19.8698,20.89847 0.65872,0.25277 1.19767,1.60789 1.19767,3.01138 0,2.44934 -0.0652,2.48982 -1.62419,1.0082 -0.89331,-0.84898 -1.46527,-1.84129 -1.27103,-2.20514 0.19424,-0.36385 -0.86103,-0.66154 -2.34505,-0.66154 -1.81039,0 -2.69822,0.43535 -2.69822,1.32308 0,0.7277 -0.39693,1.32308 -0.88206,1.32308 -0.48513,0 -0.88205,1.03534 -0.88205,2.30076 0,2.03388 0.26449,2.23438 2.28014,1.72848 5.26161,-1.32058 5.24478,-1.38385 4.93089,18.52985 -0.29992,19.02806 0.1595,21.54365 3.93455,21.54365 1.15501,0 1.50966,-1.00989 2.47801,-7.05644 2.96388,-18.50692 29.45831,-3.59215 40.58677,22.8479 7.59158,18.03678 9.77953,53.36378 3.76388,60.77228 -0.70206,0.86462 -0.13402,1.80602 2.30073,3.81295 6.49795,5.35616 3.51447,6.81686 -4.30547,2.10793 -7.87949,-4.74478 -11.5705,-5.28001 -7.66574,-1.11161 4.11166,4.38928 4.81914,11.02403 1.9738,18.51021 -2.38318,6.27019 -2.25981,6.58092 1.35333,3.40854 8.49423,-7.45803 16.79175,2.3081 11.06013,13.01772 -5.21837,9.75061 -19.52406,16.40997 -26.05681,12.12955 -4.18536,-2.74236 -3.04936,-5.77891 4.25947,-11.38558 1.76731,-1.35572 4.06116,-4.1269 5.09744,-6.15818 1.69417,-3.32085 1.09362,-2.88714 -5.95599,4.3013 -4.31208,4.397 -9.38471,8.70189 -11.27253,9.56644 -3.43239,1.5719 -3.43239,1.5719 -0.66154,3.74042 1.52397,1.19268 2.77085,2.89476 2.77085,3.7824 0,2.59125 4.70893,3.81231 7.23494,1.87609 6.70852,-5.14219 18.12009,0.76161 17.25103,8.92485 -0.3464,3.25386 0.0669,4.48974 2.99201,8.94765 5.5811,8.50557 4.81845,13.02728 -3.11421,18.46381 -1.73776,1.19095 -2.3124,2.33668 -2.3124,4.61046 0,5.32883 -9.29152,8.78823 -16.64024,6.19545 -4.40197,-1.5531 -6.68237,-0.80266 -7.50359,2.46932 -0.65205,2.59799 -4.19176,4.17198 -9.86252,4.38555 -4.87432,0.18357 -5.1736,0.72306 -6.15784,11.10024 -0.55186,5.81845 -0.55186,5.81845 3.00989,7.28064 6.22353,2.55492 5.91696,8.42683 -0.65661,12.57655 -2.45761,1.55142 -4.12509,3.60896 -5.68353,7.01303 -2.59744,5.67356 -4.77344,7.24753 -7.43874,5.38068 z m 3.08171,-44.18846 c 2.94098,-0.78815 2.54793,-3.59044 -0.60059,-4.28197 -1.42187,-0.31229 -3.05817,-1.13768 -3.63622,-1.83419 -2.39774,-2.8891 -3.47511,-0.15705 -1.73889,4.40955 0.86806,2.28316 2.29918,2.69188 5.9757,1.70661 z m 3.32268,-18.75791 c 0.61819,-4.69212 0.59741,-4.752 -1.45804,-4.2018 -1.14683,0.30698 -2.9401,0.56357 -3.98503,0.57019 -1.82274,0.0116 -0.67126,5.55447 2.078,10.00285 0.97951,1.58488 2.76133,-1.78871 3.36507,-6.37124 z m 28.6518,1.66369 c 0,-1.00121 -4.54978,-1.97376 -5.34404,-1.14232 -0.61805,0.64698 -1.16727,4.0957 -0.92798,5.82707 0.11963,0.86551 6.27202,-3.72988 6.27202,-4.68475 z m -66.81967,2.87575 c 4.35581,-4.90078 4.31279,-8.15901 -0.10774,-8.15901 -6.20521,0 -8.47247,-2.67023 -8.27632,-9.74731 0.15974,-5.76313 -0.38339,-5.9602 -4.84273,-1.75713 -2.59113,2.44222 -2.50591,3.38087 0.60024,6.61115 1.98295,2.06219 2.754,3.92053 3.31123,7.98049 0.7097,5.17088 0.79712,5.30484 3.81003,5.83775 1.69602,0.29998 3.31985,0.59768 3.60851,0.66154 0.28865,0.0639 1.14221,-0.5785 1.89678,-1.42748 z m 19.98282,-5.96984 c 2.36622,-4.46037 2.00523,-5.68746 -1.17282,-3.98662 -1.17709,0.62996 -3.17208,0.94812 -4.43329,0.70703 -2.15455,-0.41187 -2.22,-0.32554 -1.08295,1.4286 0.6656,1.02683 1.68283,2.76004 2.26052,3.85158 1.47141,2.78023 2.02499,2.53015 4.42854,-2.00059 z m 33.8308,-0.64557 c 0.23674,-1.09154 0.7224,-2.67924 1.07926,-3.52822 0.53566,-1.27438 0.17993,-1.54359 -2.03966,-1.54359 -3.48017,0 -4.06834,1.09039 -2.36495,4.38437 1.64258,3.1764 2.7365,3.40254 3.32535,0.68744 z m -8.27784,-6.4779 c 0.84943,-0.71782 -0.95923,-4.7683 -2.12919,-4.7683 -1.20029,0 -3.04856,3.25362 -3.04856,5.36656 0,0.71757 4.19412,0.23296 5.17775,-0.59826 z m 30.10444,-2.86748 c 0,-1.38925 0.78748,-3.22212 1.76411,-4.10595 3.50671,-3.17354 1.64273,-6.61541 -3.58264,-6.61541 -5.26251,0 -4.12606,12.96712 1.15699,13.20147 0.36384,0.0161 0.66154,-1.09991 0.66154,-2.48011 z m -39.85834,-5.39332 c 2.85336,-3.85938 2.46792,-4.44599 -2.92131,-4.44599 -5.61813,0 -5.62337,0.009 -2.42565,4.01635 2.93977,3.68437 2.94058,3.68444 5.34696,0.42964 z m 10.75053,-8.69124 c 0,-2.56525 -5.25619,-5.68193 -7.23754,-4.29153 -6.66563,4.67758 -6.59538,5.00856 1.06316,5.00856 3.39591,0 6.17438,-0.32266 6.17438,-0.71703 z m -34.10097,-14.93944 c 0.22179,-0.36384 -0.71435,-1.99656 -2.08032,-3.62825 -2.34135,-2.79682 -9.68555,-0.10091 -9.68555,3.55536 0,0.91322 11.21128,0.98267 11.76587,0.0729 z m 16.8673,-15.94757 c 4.17105,-1.16834 5.67616,-2.09291 7.27695,-4.47013 3.07375,-4.56457 2.54666,-11.41268 -0.58773,-7.63598 -2.20304,2.65451 -9.5315,6.63716 -13.96103,7.58713 -4.1715,0.89463 -7.24848,3.20703 -7.24848,5.44737 0,1.18589 9.03441,0.60825 14.52029,-0.92839 z m -19.45055,-35.09245 c 12.43414,-2.97879 13.91369,-3.15045 22.48938,-2.60937 8.20944,0.51798 9.06032,0.43547 8.051,-0.78069 -2.83505,-3.41602 -43.51069,1.02379 -49.23732,5.37433 -2.85121,2.16607 4.73172,1.36131 18.69694,-1.98427 z m 17.51263,-8.78586 c 10.2585,-0.77649 10.33087,0.15585 -1.14169,-14.70773 -2.01715,-2.61337 -5.2663,-3.2781 -5.2663,-1.07742 0,2.2072 -4.94004,11.27798 -7.38187,13.5544 -2.95478,2.75462 -2.11212,3.90735 2.41434,3.30274 2.00445,-0.26774 7.12343,-0.75014 11.37552,-1.07199 z m 3.2328,-54.58251 c 1.22992,-0.76013 1.22703,-8.1386 -0.003,-8.8991 -1.65464,-1.02262 -5.22703,3.19576 -5.22703,6.17223 0,3.91682 2.66478,7.69455 3.61526,5.12517 0.36926,-0.99822 1.09613,-2.07746 1.61526,-2.3983 z m -7.62835,-95.96164 c 0.81902,-2.284147 -1.13329,-4.18976 -4.29241,-4.18976 -5.05791,0 -10.30231,-3.655748 -8.77939,-6.119894 1.37852,-2.23049 18.93202,-2.94917 21.09869,-0.863828 2.17028,2.088828 2.17028,2.088828 -2.17041,6.25065 -2.38739,2.289002 -4.3407,4.581127 -4.3407,5.093612 0,0.51248 -0.43,0.93179 -0.95556,0.93179 -0.52556,0 -0.77766,-0.49616 -0.56022,-1.10257 z m 19.83539,-8.348116 c -2.34785,-0.35658 -2.37253,-0.420967 -0.97745,-2.550136 1.15922,-1.769188 1.23741,-2.609708 0.41139,-4.422609 -1.18303,-2.596476 -3.07288,-2.38205 -3.48151,0.395021 -0.35219,2.39349 -2.42662,2.446799 -5.89252,0.151424 -1.59745,-1.05795 -4.13879,-1.754788 -6.41243,-1.758297 -4.76259,-0.0074 -13.16873,-4.97518 -11.40425,-6.739652 2.0952,-2.095201 10.49653,-0.456731 8.70802,1.698283 -1.50487,1.813258 0.88754,3.644317 3.80488,2.912112 2.9929,-0.751172 2.99933,-4.217227 0.0114,-6.174963 -2.76536,-1.811936 -2.76025,-2.823927 0.0351,-6.937609 2.80872,-4.133407 7.29214,-3.869957 13.39308,0.786992 2.09672,1.600467 5.29162,3.169237 7.09977,3.486157 7.94471,1.392489 10.85644,8.154692 6.37228,14.798959 -3.1865,4.721492 -4.94041,5.376038 -11.66778,4.354318 z m 9.90614,-9.148438 c 0,-2.031809 -5.8516,-7.024446 -9.75095,-8.319603 -2.24844,-0.746812 -5.41758,-2.338718 -7.04253,-3.537569 -2.96826,-2.189915 -6.13994,-2.890753 -6.13994,-1.356727 0,1.599826 7.91397,7.280762 11.75159,8.435715 2.13948,0.643891 4.91721,2.197949 6.17273,3.453462 2.33469,2.334693 5.0091,3.041975 5.0091,1.324722 z m -46.35817,1.01361 c 1.64738,-1.820338 1.21249,-3.5838 -0.88381,-3.5838 -1.7011,0 -1.62184,-1.440752 0.11595,-2.107603 1.68205,-0.645461 4.40271,0.670951 7.65408,3.703485 3.46696,3.233604 3.09089,3.696446 -3.00338,3.696446 -5.3143,0 -5.39636,-0.03611 -3.88284,-1.708528 z m 57.82488,-4.980362 c -1.21283,-0.672978 -2.99899,-1.231892 -3.96925,-1.242033 -1.45175,-0.01517 -1.32687,-0.246501 0.70527,-1.306464 1.35816,-0.708415 3.49555,-2.095206 4.74974,-3.081757 4.74903,-3.735587 6.9463,-2.145143 4.52881,3.278084 -1.77909,3.991109 -2.53098,4.285156 -6.01457,2.35217 z M 235.54638,74.56805 c -1.43815,-1.051603 -1.5173,-1.453812 -0.52207,-2.652985 0.66695,-0.80363 0.97337,-2.458135 0.7102,-3.834793 -0.66311,-3.468835 0.7392,-5.660834 3.22269,-5.037516 1.26354,0.317129 2.44176,-0.0088 3.15991,-0.874106 1.6733,-2.016202 2.40733,-1.70666 3.00184,1.265871 0.33001,1.65007 1.52778,3.252973 3.18293,4.259531 2.63032,1.599589 2.63884,1.629942 0.96253,3.429249 -2.97821,3.196734 -7.59742,1.515359 -7.34713,-2.674332 0.14213,-2.379281 -0.15828,-3.249832 -1.12148,-3.249832 -1.81664,0 -3.38475,3.806233 -2.69702,6.546398 1.04092,4.147357 0.33182,4.931504 -2.5524,2.822515 z m 47.67857,-2.26248 c -0.85318,-0.942763 -2.80009,-1.981751 -4.32646,-2.308864 -4.01621,-0.860704 -4.43582,-1.307876 -2.49976,-2.663948 0.95046,-0.665726 1.97948,-2.211982 2.28672,-3.436125 0.7759,-3.091407 2.14812,-2.778611 3.65745,0.833704 0.8964,2.145407 1.68332,2.903998 2.634,2.539188 3.57377,-1.371384 6.04956,4.141845 2.57158,5.726521 -2.81243,1.28143 -2.49278,1.332481 -4.32353,-0.690476 z m 7.0112,-6.288352 c -8.23912,-5.930047 -9.72734,-8.552615 -6.17439,-10.880598 2.37038,-1.55313 2.85395,-3.930782 1.14667,-5.638055 -0.82325,-0.823251 -0.70564,-1.058466 0.52924,-1.058466 5.05994,0 8.54335,7.021578 4.55024,9.17201 -3.17399,1.709309 -4.5182,3.647419 -3.12634,4.507636 0.4497,0.277927 2.00035,-0.106286 3.4459,-0.853807 4.1737,-2.158308 5.64391,-1.72013 7.27724,2.168905 1.56941,3.736825 1.5003,3.904398 -1.91521,4.644171 -1.55265,0.336293 -3.24911,-0.273776 -5.73335,-2.061796 z m -22.76741,-1.340052 c -1.35824,-1.168306 -3.34047,-2.130271 -4.40496,-2.137699 -3.46461,-0.02418 -4.2259,-1.245442 -4.57922,-7.345969 -0.43872,-7.575119 1.5511,-7.377412 10.80279,1.073351 4.21172,3.847115 2.43401,12.068274 -1.81861,8.410317 z m -18.07172,-0.536494 c -0.58216,-0.582156 -1.05847,-2.791336 -1.05847,-4.909288 0,-2.117953 -0.40567,-4.608821 -0.90149,-5.535263 -0.75214,-1.405397 -0.55129,-1.772331 1.21242,-2.214994 1.16264,-0.291805 2.55211,-1.492336 3.08771,-2.667846 1.35925,-2.983227 2.45912,-2.663658 2.51035,0.729386 0.0238,1.576673 0.34703,4.576304 0.71827,6.665848 0.61429,3.457551 0.49942,3.845081 -1.27753,4.309764 -1.53819,0.402244 -1.84146,0.953066 -1.42918,2.595726 0.57587,2.294464 -1.02134,2.867406 -2.86208,1.026667 z m 25.02661,-5.523538 c -0.37687,-2.008873 -1.72411,-4.026218 -3.97617,-5.953904 -3.40618,-2.915556 -3.40618,-2.915556 -1.26156,-5.553967 1.94054,-2.387341 2.22994,-2.491523 3.04123,-1.094814 0.49313,0.848977 1.76997,1.559727 2.8374,1.579443 4.40459,0.08135 8.19186,4.943462 5.09718,6.543782 -1.86135,0.962541 -2.94756,2.299377 -3.29996,4.061364 -0.75254,3.762691 -1.7777,3.938488 -2.43812,0.418096 z"
         id="path19536" /><path
         style="fill:#f07a86"
         d="m 256.20817,408.88894 c -1.66613,-3.56045 -3.90067,-6.63112 -6.12804,-8.42108 -6.06203,-4.87158 -4.45728,-10.63431 3.37026,-12.10277 3.71224,-0.69642 4.28761,-2.11899 2.35116,-5.81307 -1.0823,-2.06464 -1.56752,-5.31499 -1.6839,-11.27992 -0.19597,-10.04397 -2.72233,-16.04703 -4.45537,-10.58671 -1.31965,4.15785 -8.58234,3.25174 -10.77399,-1.34419 -1.83338,-3.84465 -3.36071,-3.87646 -5.57933,-0.11618 -2.30952,3.91434 -4.94805,4.98617 -10.79019,4.38321 -6.26113,-0.64621 -6.90513,0.51576 -2.88733,5.20965 3.34794,3.91132 5.48744,9.33191 4.59807,11.64958 -0.98496,2.56675 -2.21795,1.42188 -3.60419,-3.34661 -1.65434,-5.69073 -3.20035,-7.14796 -7.29116,-6.87246 -4.82311,0.32482 -6.1252,-0.4853 -8.0787,-5.02633 -4.10741,-9.54795 -4.27663,-19.87504 -0.39421,-24.05912 2.15685,-2.32444 2.15685,-2.32444 0.22427,-6.81684 -2.76183,-6.42005 -0.66667,-12.458 5.41402,-15.60245 2.59643,-1.34267 2.59643,-1.34267 0.47015,-4.17645 -10.09215,-13.4503 -12.50367,-35.9151 -4.98833,-46.46942 2.41236,-3.38785 2.24787,-3.84015 -0.81968,-2.25386 -3.28365,1.69804 -4.45408,1.70098 -4.45408,0.0112 0,-0.734 1.78616,-2.20233 3.96924,-3.26296 3.92349,-1.90618 4.71481,-3.07726 3.18138,-4.70818 -4.09137,-4.35146 -4.3967,-31.54342 -0.52447,-46.70757 8.90916,-34.88938 40.18517,-59.16518 45.0042,-34.93133 0.76655,3.85478 1.37079,5.00174 2.74219,5.20515 3.28206,0.4868 3.95221,-3.21557 3.78108,-20.88947 -0.13805,-14.25783 0.0261,-16.481 1.27485,-17.26871 3.75863,-2.37088 4.22951,-0.26796 4.11729,18.38749 -0.10993,18.27533 0.38743,20.83288 4.05132,20.83288 1.15501,0 1.50966,-1.00989 2.47801,-7.05644 3.3206,-20.73435 33.37939,-0.48407 42.72271,28.78183 6.15529,19.28009 6.84536,48.85713 1.28645,55.13815 -1.14394,1.29254 -0.96849,1.6665 1.63534,3.48572 3.56065,2.48772 4.40255,3.63604 3.40046,4.63813 -0.43319,0.43319 -2.42893,-0.37188 -4.59406,-1.85321 -10.57159,-7.23286 -14.55003,-7.58673 -9.92269,-0.88259 7.75577,11.23664 -2.20116,32.54261 -19.56149,41.85795 -5.01891,2.69308 -5.01891,2.69308 -2.53378,3.90227 1.36682,0.66506 3.14032,2.39996 3.94111,3.85536 2.11073,3.83613 5.34985,4.73973 8.39734,2.34258 6.70414,-5.27348 18.06865,1.40979 16.79861,9.87897 -0.52553,3.50454 -0.30274,4.17308 2.51442,7.545 5.54337,6.63498 5.26114,14.12805 -0.65083,17.27974 -1.92305,1.02518 -3.48188,2.5954 -3.72152,3.74873 -0.22681,1.09155 -0.59848,2.89752 -0.82592,4.01329 -0.86151,4.22618 -9.81447,6.26252 -17.46117,3.97152 -3.81525,-1.14308 -3.43993,-1.36997 -7.75829,4.68985 -1.10947,1.55689 -2.56386,2.03345 -7.49746,2.4567 -6.12098,0.52511 -6.12098,0.52511 -7.20772,7.09304 -1.26252,7.63028 -1.83313,9.40386 -1.93081,6.00135 -0.0867,-3.02031 -1.34832,-3.10444 -3.24083,-0.2161 -1.73146,2.64255 -0.22958,5.68916 1.92363,3.90216 0.84641,-0.70246 1.47708,-0.6926 2.30862,0.0361 0.62924,0.55141 2.53331,1.67605 4.23127,2.4992 5.57125,2.70089 4.77092,7.95591 -1.84802,12.13426 -2.0999,1.32562 -3.37475,2.90698 -3.715,4.60819 -1.76192,8.80961 -7.70097,10.14073 -11.26489,2.5248 z m 7.53378,-39.91543 c 1.54178,-1.54178 0.47476,-3.87579 -1.77188,-3.87579 -0.63107,0 -2.3267,-0.99231 -3.76806,-2.20514 -3.60509,-3.03348 -4.01203,-2.81194 -3.37479,1.83726 0.81653,5.95723 5.14208,8.01632 8.91473,4.24367 z m 28.19407,-13.31809 c 3.59281,-2.79914 3.96154,-3.35963 2.5704,-3.90725 -3.75585,-1.47849 -6.23383,-0.86774 -6.74441,1.66232 -0.26923,1.33411 -0.75824,3.12027 -1.08668,3.96925 -0.9186,2.37446 0.66667,1.85484 5.26069,-1.72432 z m -26.98221,0.84226 c 0.44019,-0.84897 1.07315,-3.42424 1.40658,-5.72281 0.69227,-4.7723 2.33295,-6.84646 5.41561,-6.84646 2.33661,0 2.6537,-1.18581 1.28191,-4.79388 -1.21655,-3.19978 -4.1274,-3.01168 -4.85782,0.31391 -1.7404,7.92397 -9.51726,9.31347 -13.25727,2.36869 -1.9201,-3.56541 -3.55564,-4.07457 -4.41284,-1.37375 -0.75291,2.37222 1.60821,5.92231 4.18174,6.28751 1.48344,0.2105 2.68814,1.72151 4.6223,5.79755 2.67202,5.63098 4.19899,6.70948 5.61979,3.96924 z m -34.69738,-4.88014 c 3.92423,-7.56421 8.22472,-7.82214 11.44254,-0.68629 2.0814,4.61572 3.32115,4.51478 6.12314,-0.49853 2.85586,-5.10968 2.05768,-10.25684 -0.85877,-5.53792 -0.35797,0.57921 -1.88073,0.75913 -3.80079,0.44908 -6.74183,-1.0887 -10.74807,-1.09847 -11.63617,-0.0284 -2.76598,3.3328 -9.68124,1.91309 -11.44711,-2.35011 -1.00282,-2.42102 -0.9019,-4.2644 0.55022,-10.05011 0.60196,-2.39838 0.60196,-2.39838 -3.7061,0.62615 -5.26227,3.69445 -5.73865,5.78561 -2.1535,9.45317 1.48321,1.5173 2.76621,3.73735 2.85111,4.93345 0.0849,1.1961 0.22382,3.30707 0.30872,4.69104 0.44091,7.18762 8.41435,6.53977 12.32671,-1.00156 z m 51.6002,-2.33622 c 0,-0.81814 0.58276,-2.258 1.29503,-3.1997 1.99956,-2.64366 1.71208,-4.23513 -0.63349,-3.50694 -1.09155,0.33888 -2.68544,0.70891 -3.54199,0.82229 -2.91639,0.38606 -3.2651,1.72852 -1.48293,5.70911 1.76127,3.93392 4.36338,4.03842 4.36338,0.17524 z m 21.16931,-9.20285 c 0,-1.08994 0.97648,-3.30527 2.16997,-4.92294 2.7937,-3.78665 1.80616,-6.16179 -2.64203,-6.35436 -1.68089,-0.0728 -3.55232,-0.172 -4.15873,-0.22052 -2.18511,-0.1748 -1.38287,9.29777 1.01703,12.00869 2.35538,2.66062 3.61376,2.48272 3.61376,-0.51087 z m -38.80691,-6.30056 c 2.25877,-4.43044 -13.57013,-7.15151 -17.94196,-3.08432 -1.34579,1.25201 1.00927,1.80781 3.27872,0.77378 3.09742,-1.41128 6.60804,0.19033 9.22165,4.20707 2.27759,3.50033 2.77926,3.32548 5.44159,-1.89653 z m 9.49714,-7.16934 c 1.98142,-0.53088 1.97184,-0.56896 -0.88205,-3.50678 -3.16612,-3.25922 -5.14881,-3.72098 -6.90275,-1.60762 -2.00375,2.41438 -6.15985,4.03961 -9.95083,3.89124 -2.02001,-0.0791 -4.06967,-0.0285 -4.5548,0.11241 -0.48513,0.14088 3.48412,0.49616 8.82055,0.78949 5.33643,0.29334 10.09952,0.60638 10.58465,0.69565 0.48513,0.0893 1.78349,-0.0792 2.88523,-0.37439 z m -33.49784,-15.53824 c 3.15395,-3.80029 -4.53884,-7.37699 -8.69054,-4.04059 -4.51704,3.62999 -4.39474,4.10621 1.15429,4.49441 2.54693,0.17818 5.07834,0.39738 5.62535,0.48712 0.54701,0.0897 1.40692,-0.33368 1.9109,-0.94094 z m 17.54869,-16.17113 c 5.32564,-1.47304 8.13008,-4.67333 8.85926,-10.10976 0.57156,-4.26127 -0.45717,-4.46677 -4.92998,-0.9848 -4.80625,3.74154 -8.03277,5.38918 -12.87224,6.5733 -3.47315,0.8498 -4.71715,1.67155 -6.08422,4.01906 -1.90823,3.27677 4.25168,3.48264 15.02718,0.5022 z m -20.56907,-35.28965 c 12.3462,-2.93242 14.02287,-3.12852 22.3868,-2.61833 8.93204,0.54485 10.45064,0.11758 7.69889,-2.16617 -3.53706,-2.9355 -53.06533,3.95716 -51.11464,7.11344 0.97828,1.58289 7.68765,0.83983 21.02895,-2.32894 z m 49.8775,-2.6829 c 1.04571,-0.91519 -1.54085,-1.62845 -7.03028,-1.93863 -5.8201,-0.32886 -8.92046,1.36327 -5.02447,2.74228 1.18015,0.41772 11.44079,-0.26633 12.05475,-0.80365 z m -34.26341,-5.31935 c 12.53645,-0.67408 12.73415,-0.91058 7.00488,-8.37918 -8.02079,-10.4558 -10.12164,-12.13414 -11.13422,-8.895 -1.4908,4.76886 -4.67814,10.76023 -7.25268,13.63314 -2.86686,3.19911 -3.07932,5.74719 -0.39325,4.71645 0.73718,-0.28288 6.03605,-0.76682 11.77527,-1.07541 z m 40.5113,0.9441 c 0,-0.95168 -3.63288,-5.64901 -4.36889,-5.64901 -1.63092,0 -3.81369,4.59543 -2.56007,5.38978 1.35169,0.8565 6.92896,1.06516 6.92896,0.25923 z m -35.64406,-52.95073 c -0.30284,-0.78918 -0.0905,-1.98932 0.47193,-2.66697 1.52815,-1.84131 1.63228,-9.19269 0.13834,-9.76597 -4.01364,-1.54017 -7.20338,7.57331 -4.16763,11.90745 1.61715,2.30881 4.39939,2.7198 3.55736,0.52549 z m 10.96799,-6.97049 c 1.36255,-1.64178 -2.03744,-5.89396 -4.08461,-5.10839 -1.24712,0.47857 -1.71833,4.79211 -0.64114,5.86929 1.03742,1.03742 3.57196,0.62933 4.72575,-0.7609 z m 25.33761,117.7095 c -2.88343,-1.67945 -1.84842,-4.85394 2.75989,-8.46494 2.38462,-1.86855 5.82597,-5.87034 7.71798,-8.97489 5.27914,-8.6624 9.48377,-10.91219 14.2087,-7.60273 11.21395,7.85456 -12.64411,32.05665 -24.68657,25.04256 z M 260.0696,132.7459 c -2.88159,-5.12081 -0.0564,-22.6371 3.97746,-24.66021 18.02581,-9.04058 28.53181,-12.455141 38.37479,-12.472215 15.98655,-0.02773 15.74986,2.776187 -0.27797,3.292978 -9.14989,0.295023 -10.7053,0.594489 -15.87698,3.056817 -3.15335,1.50137 -6.62644,2.99964 -7.71798,3.32951 -7.52917,2.27531 -2.08147,4.00909 12.59696,4.00909 12.32885,0 14.66228,0.21028 15.1039,1.36112 0.81364,2.12032 0.92453,2.1083 -20.47098,2.21808 -24.17744,0.12405 -22.44532,-0.76524 -22.44532,11.52373 0,9.5516 -1.05932,12.25877 -3.26388,8.3411 z"
         id="path19535" /><path
         style="fill:#eb6265"
         d="m 258.02927,411.6261 c -0.96254,-1.57667 -2.17221,-4.05745 -2.68817,-5.51284 -0.51595,-1.45539 -2.60029,-3.85045 -4.63187,-5.32236 -6.26976,-4.54253 -5.59517,-10.01246 1.48269,-12.02235 5.14748,-1.46172 5.42433,-1.90682 3.86202,-6.20931 -0.75685,-2.08432 -1.58807,-7.49489 -1.84715,-12.02349 -0.58054,-10.14763 -2.50615,-14.29862 -4.84493,-10.44411 -2.75089,4.53371 -7.22869,3.95785 -9.89717,-1.27281 -1.79103,-3.5107 -5.23901,-4.84855 -5.23901,-2.03278 0,3.84505 -4.96488,6.67325 -11.205,6.38283 -7.1865,-0.33446 -8.27371,1.26336 -3.92667,5.77083 2.92782,3.03588 4.54701,6.55673 4.54701,9.88728 0,3.13097 -1.4771,2.62755 -2.10954,-0.71897 -1.22251,-6.46882 -3.57602,-8.72563 -8.42826,-8.08196 -8.14027,1.07984 -14.64648,-20.30873 -8.42638,-27.7009 2.57838,-3.06422 2.7189,-4.5473 0.78517,-8.28671 -2.96969,-5.74275 0.73913,-13.93667 6.92292,-15.29486 2.60885,-0.573 2.60885,-0.573 -0.0628,-3.35056 -10.92224,-11.35515 -13.85427,-38.04443 -5.25539,-47.83801 2.84738,-3.24298 1.96921,-3.89402 -2.2702,-1.68302 -3.14949,1.64258 -4.08893,1.65965 -4.08893,0.0743 0,-3.79235 24.38063,-12.90161 35.72321,-13.34715 28.43164,-1.11682 30.08868,-1.60966 24.86232,-7.39462 -1.71384,-1.89701 -3.80334,-4.57336 -4.64333,-5.94744 -0.83999,-1.37408 -3.13024,-3.93518 -5.08944,-5.69133 -3.33233,-2.98697 -3.55767,-3.49201 -3.49228,-7.82678 0.0574,-3.80411 -0.22276,-4.71031 -1.56471,-5.06124 -4.90392,-1.2824 -3.0353,-13.86857 1.91211,-12.87908 3.38187,0.67637 3.66961,-2.45036 0.3641,-3.95645 -2.7676,-1.261 -2.75949,-1.9509 0.0587,-4.99178 2.26384,-2.44272 2.26384,-2.44272 4.67905,-0.1288 2.68415,2.57158 5.01305,3.09698 4.18711,0.94462 -0.289,-0.75311 0.0774,-2.28936 0.81423,-3.41389 0.73682,-1.12453 1.33214,-3.18759 1.32294,-4.58457 -0.25854,-39.26818 0.26994,-48.91909 2.55174,-46.5986 0.92263,0.93826 1.2824,38.9005 0.41136,43.40516 -0.77742,4.02044 0.7625,5.56541 5.27049,5.28778 3.5256,-0.21713 3.64644,-0.13407 3.91797,2.69321 0.15409,1.60449 0.86339,3.14106 1.57622,3.4146 0.71282,0.27353 1.88694,1.64001 2.60916,3.03661 1.00486,1.9432 1.93545,2.53928 3.9643,2.53928 4.53039,0 4.55639,5.35045 0.0293,6.02187 -1.06995,0.15869 -1.81291,0.55562 -1.65101,0.88206 3.82995,7.72251 3.8734,7.7604 7.30477,6.37026 2.0355,-0.82463 4.8513,1.15425 4.8513,3.40938 0,0.77837 0.79385,1.91099 1.76411,2.51693 3.73563,2.33294 1.89833,7.26114 -2.70705,7.26114 -1.55181,0 -1.63824,0.50261 -1.12682,6.55269 0.48582,5.74723 0.3174,6.95355 -1.37017,9.81377 -2.4144,4.09211 -2.31027,4.17853 5.91069,4.9056 8.30039,0.73409 15.67087,3.41108 20.66941,7.5072 2.06938,1.69578 4.50198,3.68873 5.40578,4.42878 3.58615,2.93637 -0.0436,3.23127 -4.23944,0.34443 -8.75773,-6.02547 -18.26161,-8.32611 -12.56169,-3.04085 11.15772,10.34602 1.21165,34.93589 -17.82027,44.0574 -4.25975,2.04159 -4.41938,2.57566 -1.22731,4.10622 1.31991,0.63289 2.89108,2.13625 3.49149,3.34082 2.33899,4.69256 5.8538,5.57652 9.9961,2.51399 5.64242,-4.17162 14.98448,1.87166 14.98448,9.69331 0,3.56563 0.58711,5.26192 3.12811,9.03783 4.68568,6.96289 4.2361,12.32513 -1.364,16.26866 -2.67975,1.88706 -4.01264,3.48544 -4.10284,4.92005 -0.0735,1.16871 -0.17271,2.6109 -0.22051,3.20485 -0.25411,3.15726 -10.92886,5.3938 -16.39927,3.43592 -4.09697,-1.46632 -6.26843,-0.70688 -7.53974,2.6369 -1.06708,2.80664 -6.33649,5.07953 -10.12745,4.36834 -3.73517,-0.70072 -4.43408,0.32317 -5.65748,8.28812 -1.06055,6.9047 -1.81955,9.00513 -1.81955,5.03535 0,-2.49048 -1.55488,-3.09061 -3.35181,-1.29368 -2.44858,2.44858 -0.5468,7.25341 2.02586,5.1183 0.92945,-0.77138 1.53148,-0.77869 2.38701,-0.029 0.62924,0.55141 2.53331,1.67605 4.23127,2.4992 5.52039,2.67623 4.52047,8.83141 -1.98083,12.19337 -1.46958,0.75994 -3.45285,3.28867 -5.03056,6.4141 -2.20499,4.36806 -3.97946,6.26362 -5.86351,6.26362 -0.21002,0 -1.16938,-1.29001 -2.13191,-2.86668 z m 5.96575,-41.72573 c 2.34655,-0.71726 1.15206,-3.98993 -1.92563,-5.27588 -1.66552,-0.69589 -3.61842,-2.10791 -4.33979,-3.1378 -2.06971,-2.95494 -3.51646,-1.23708 -2.87844,3.41783 0.84176,6.14126 2.4758,7.03404 9.14386,4.99585 z m 25.42497,-11.93191 c 0.91432,-1.01031 2.99542,-2.3939 4.62467,-3.07464 4.62828,-1.93382 2.33532,-4.44415 -4.29587,-4.70311 -2.0132,-0.0786 -2.34717,0.37929 -3.15588,4.32717 -1.18174,5.76889 -0.27382,6.87704 2.82708,3.45058 z m -23.85659,-1.47078 c 2.11888,-10.29111 2.54178,-11.22276 5.48806,-12.09014 3.07796,-0.90615 3.77639,-3.30557 1.95359,-6.7115 -1.50732,-2.81645 -3.34171,-1.9543 -5.68628,2.67248 -3.74622,7.39281 -8.42796,7.76609 -11.90565,0.94926 -2.06448,-4.0467 -4.13184,-4.61146 -4.94986,-1.35219 -0.62871,2.50497 1.58504,6.60898 3.56496,6.60898 1.85792,0 4.50123,3.82276 5.7654,8.33794 1.3729,4.90351 4.88774,5.86917 5.76978,1.58517 z m -35.37742,-3.23301 c 3.46146,-7.82696 7.86363,-8.51625 11.14175,-1.74457 2.41788,4.99467 3.8225,4.88626 6.55493,-0.50593 3.15105,-6.21829 1.90544,-10.42543 -1.94628,-6.57371 -0.88612,0.88612 -2.05998,1.17158 -3.24216,0.78842 -3.34386,-1.08376 -9.74529,-0.98233 -12.17347,0.1929 -10.05059,4.8644 -14.4872,-8.2823 -5.89799,-17.47708 2.65124,-2.83815 2.83384,-5.18561 0.40339,-5.18561 -1.8116,0 -4.91335,3.49624 -4.91335,5.53824 0,0.92256 -1.24958,2.7331 -2.77686,4.02344 -7.13118,6.02487 -7.10072,5.93208 -3.34947,10.20452 2.14883,2.44738 2.81841,4.1945 3.30771,8.63073 0.60782,5.51086 0.64197,5.56721 3.70068,6.1076 6.74796,1.19219 6.93047,1.11278 9.19112,-3.99895 z m 52.10309,-3.1111 c 0.32314,-1.9126 1.12828,-3.92624 1.78921,-4.47477 2.39381,-1.98668 0.4808,-3.67716 -3.44079,-3.04053 -5.0349,0.81736 -5.3569,1.38976 -3.65847,6.50325 1.91526,5.76632 4.42598,6.24484 5.31005,1.01205 z m 24.60108,1.50936 c 0.7451,-1.18869 0.59505,-1.87273 -0.67721,-3.08719 -1.2117,-1.15664 -1.74149,-1.27091 -2.04843,-0.44182 -0.22772,0.61507 -0.99928,1.70357 -1.71459,2.41888 -0.71531,0.71531 -1.03934,1.72323 -0.72007,2.23983 0.83873,1.35709 4.04095,0.65606 5.1603,-1.1297 z m -2.98216,-11.12604 c 0,-2.2713 0.58268,-3.91882 1.76411,-4.988 3.85023,-3.48441 1.09057,-7.74825 -4.73921,-7.32237 -4.79228,0.35008 -5.84844,8.85927 -1.64784,13.27624 3.25019,3.4176 4.62294,3.13079 4.62294,-0.96587 z m -74.95921,-3.69517 c 1.84238,-3.61136 1.7129,-5.26208 -0.41274,-5.26208 -1.33469,0 -4.31404,6.73775 -3.536,7.99664 0.9859,1.59523 2.15173,0.78788 3.94874,-2.73456 z m 34.45183,-0.63129 c 0.49803,-1.33411 1.7736,-3.09412 2.8346,-3.91114 3.26027,-2.51056 -1.47946,-3.64796 -11.51743,-2.76385 -8.04616,0.70867 -11.29869,2.42517 -4.82757,2.54771 4.83457,0.0915 6.6499,0.9424 8.33043,3.90449 1.8745,3.304 3.99566,3.39523 5.17997,0.22279 z m 12.10665,-10.33617 c 3.22209,-3.22209 -7.78701,-6.64057 -11.45259,-3.55619 -2.21809,1.8664 -3.51806,2.20513 -8.46274,2.20513 -9.48251,0 -5.27797,1.65893 5.10632,2.01473 9.17472,0.31436 14.04945,0.0959 14.80901,-0.66367 z m -2.98533,-11.90437 c 5.3902,-2.31051 5.36442,-3.98055 -0.05,-3.23843 -2.25079,0.30851 -5.02926,0.56092 -6.17438,0.56092 -2.41568,0 -2.65971,1.06042 -0.69594,3.02419 1.7579,1.7579 2.04396,1.74357 6.92031,-0.34668 z m -32.3036,-2.89956 c 0.97844,-1.17895 -3.28373,-6.83438 -5.15069,-6.83438 -1.16587,0 -8.78046,6.28146 -8.78046,7.24322 0,1.18985 12.91901,0.81071 13.93115,-0.40884 z m 16.84126,-15.70207 c 5.64399,-0.97368 6.91591,-1.89778 9.04047,-6.56827 3.67871,-8.08703 1.58737,-10.40563 -4.66775,-5.17496 -4.26578,3.56713 -7.33955,5.12406 -12.82595,6.49662 -3.42139,0.85594 -7.32425,4.25637 -7.32425,6.38136 0,0.88124 7.01716,0.37655 15.77748,-1.13475 z m -20.18775,-35.26067 c 9.84233,-2.45363 12.15374,-2.7181 21.53615,-2.46407 10.82185,0.29299 13.53973,-0.55274 9.21479,-2.86737 -5.99127,-3.20644 -53.68436,4.11234 -53.68436,8.23817 0,1.47706 10.88049,0.098 22.93342,-2.90673 z m 54.68739,-1.63147 c 0,-2.39067 -14.85719,-5.02512 -17.46606,-3.09706 -2.60711,1.92677 -0.1188,2.90021 8.21113,3.21223 4.36251,0.16341 8.22954,0.37873 8.59339,0.47849 0.36384,0.0998 0.66154,-0.16739 0.66154,-0.59366 z m 2.42565,51.86356 c -2.88343,-1.67945 -1.84842,-4.85394 2.75989,-8.46494 2.38462,-1.86855 5.82597,-5.87034 7.71798,-8.97489 5.27914,-8.6624 9.48377,-10.91219 14.2087,-7.60273 11.21395,7.85456 -12.64411,32.05665 -24.68657,25.04256 z M 259.9723,121.43524 c 0.27399,-10.80006 0.27399,-10.80006 3.80221,-12.44029 1.94052,-0.90213 4.1236,-2.16351 4.8513,-2.80307 0.72769,-0.63956 2.51385,-1.45059 3.96924,-1.80229 1.45539,-0.3517 6.59425,-2.37917 11.41969,-4.505488 8.77353,-3.866035 8.77353,-3.866035 18.96418,-3.61903 13.56318,0.32875 12.92894,1.860157 -1.04674,2.527434 -25.84774,1.234114 -34.46334,10.794794 -10.08614,11.192534 11.23587,0.18332 14.75358,0.5047 14.48201,1.32308 -0.42995,1.2957 -32.58141,2.37383 -38.02095,1.27495 -5.31572,-1.07386 -5.85568,-0.10578 -5.85568,10.49865 0,7.7065 -0.21761,9.15357 -1.37655,9.15357 -1.18734,0 -1.33889,-1.48455 -1.10257,-10.80005 z"
         id="path19534" /><path
         style="fill:#b35b6d"
         d="m 257.64798,404.1489 c -10.83715,-2.7571 -14.11229,-12.62651 -4.92978,-14.85557 5.17982,-1.25739 6.07755,-2.8291 4.10918,-7.19417 -0.96811,-2.14687 -1.43422,-4.90753 -1.24145,-7.3528 0.37491,-4.75578 1.04671,-3.37436 2.6,5.34629 1.1783,6.61541 1.1783,6.61541 4.70652,7.35637 9.22854,1.93808 11.21188,2.69246 12.58389,4.78642 3.8155,5.82319 -8.75352,14.22221 -17.82836,11.91346 z m 11.57406,-36.32718 c 0.50233,-4.24147 -0.44083,-5.9983 -1.92821,-3.59167 -0.30472,0.49304 -0.9428,0.65617 -1.41797,0.3625 -1.07291,-0.6631 0.72955,-3.02305 2.30892,-3.02305 0.60889,0 1.6168,-0.61418 2.23979,-1.36483 3.0746,-3.70467 2.96204,6.12294 -0.11502,10.0427 -1.61667,2.05942 -1.61828,2.05583 -1.08751,-2.42565 z m -37.08255,-25.72144 c -2.46718,-1.94069 -3.0325,-5.04913 -1.24361,-6.83803 0.85261,-0.8526 0.82035,-1.4944 -0.15297,-3.04308 -3.81357,-6.06795 -2.48272,-12.05996 3.20653,-14.43708 1.71312,-0.71578 3.3114,-2.05338 3.55174,-2.97244 0.24034,-0.91905 1.43782,-2.32678 2.66106,-3.12828 2.22409,-1.45727 2.22409,-1.45727 -0.0921,-3.60499 -1.27392,-1.18124 -2.31622,-2.52858 -2.31622,-2.99407 0,-2.23019 -4.40193,-0.42313 -8.82054,3.62097 -11.63358,10.64753 -16.08892,10.54136 -21.5014,-0.51237 -10.96349,-22.39038 -6.13574,-43.32121 10.2916,-44.61942 3.9823,-0.31471 12.57588,-1.86692 19.09684,-3.44935 38.01294,-9.22453 50.30953,2.13351 25.03078,23.12026 -5.07278,4.21149 -6.47587,4.94287 -13.48622,7.02993 -3.30714,0.98457 -8.97554,6.3763 -7.75105,7.37273 0.41967,0.3415 25.76706,-1.19348 29.33499,-1.77646 4.6705,-0.76314 7.328,0.97744 5.81336,3.80758 -1.9876,3.71386 -17.89636,9.85209 -25.53417,9.85209 -4.43511,0 -4.7774,1.48358 -0.98858,4.28478 2.71086,2.00422 4.39138,1.88347 4.39138,-0.31553 0,-2.19367 1.67634,-2.32651 5.88202,-0.46614 4.13825,1.83055 4.13825,1.83055 0.67171,5.42113 -4.54158,4.70409 -7.01652,5.66624 -9.83124,3.82197 -2.71376,-1.77812 -4.87581,-1.0352 -4.50233,1.54708 0.39463,2.72854 2.70543,3.15835 17.52654,3.25988 14.70586,0.10075 17.93095,-1.31607 13.69647,-6.017 -4.3434,-4.82185 -0.0191,-11.79341 6.06891,-9.78419 2.48094,0.81879 3.31735,1.64074 3.72043,3.65612 0.43812,2.19063 1.14462,2.76693 4.48836,3.66124 5.83451,1.5605 7.53788,5.32877 4.69513,10.38676 -1.72885,3.07607 -1.86638,3.93393 -0.9755,6.08471 0.84017,2.02835 0.77887,3.00316 -0.32285,5.13364 -3.32742,6.43452 -11.59267,4.26345 -11.38704,-2.99108 0.0565,-1.992 -0.38024,-3.2866 -1.21699,-3.60769 -0.71779,-0.27544 -1.62709,-1.34779 -2.02068,-2.383 -1.10646,-2.91021 -34.43143,-3.42939 -34.43143,-0.53643 0,1.11961 -0.8304,2.13656 -2.15624,2.64064 -1.85979,0.70709 -2.08953,1.23093 -1.67098,3.81014 0.88226,5.43675 -5.18698,8.53512 -9.72568,4.96498 z m 61.23064,-32.95665 c -1.43347,-1.72722 -0.18265,-3.83007 4.23085,-7.11282 1.95671,-1.45539 4.47395,-4.16951 5.59387,-6.03137 7.7505,-12.88513 17.47218,-15.64825 17.47218,-4.96598 0,11.75461 -21.00555,25.69078 -27.2969,18.11017 z m -91.78048,-43.59027 c 0,-2.61475 23.55931,-10.28145 35.72322,-11.62509 23.51237,-2.59721 45.41577,-2.73665 35.83023,-0.2281 -2.71012,0.70925 -4.55194,0.7399 -6.17438,0.10276 -7.66992,-3.01199 -44.83594,3.07933 -59.58087,9.765 -3.18901,1.44597 -5.7982,2.33941 -5.7982,1.98543 z m 114.22608,-0.66823 c -5.61898,-4.3521 -20.8733,-9.37106 -34.73618,-11.42885 -2.37973,-0.35324 -3.43761,-0.83729 -2.75368,-1.25999 2.21987,-1.37196 -5.27853,-5.2939 -10.12145,-5.2939 -2.81158,0 -8.00471,-3.48057 -10.10946,-6.77564 -1.18324,-1.85239 -3.51322,-4.82277 -5.17775,-6.60085 -2.971,-3.17367 -3.0089,-3.31094 -2.06982,-7.49746 0.52613,-2.34553 1.40713,-8.82924 1.95779,-14.40823 1.10912,-11.23712 1.1238,-11.2853 2.97088,-9.75236 1.81782,1.50866 3.39267,0.26602 2.77612,-2.1905 -0.66162,-2.63612 3.89051,-6.2844 6.2169,-4.98249 0.80362,0.44973 2.1986,0.62483 3.09995,0.38912 1.47098,-0.38467 1.63792,0.14661 1.6299,5.18716 -0.0141,8.89764 2.87736,15.88601 9.46952,22.88654 8.74404,9.28573 11.28997,23.7908 4.7781,27.2226 -2.99434,1.57804 -1.50041,2.40348 6.4896,3.58569 11.00311,1.62804 28.66677,9.03653 28.66677,12.02342 0,0.697 -1.41511,0.19083 -3.08719,-1.10426 z M 269.68427,111.77162 c -1.91228,-1.91228 -1.25336,-5.08548 1.25396,-6.03876 2.94394,-1.11928 4.74401,0.24012 4.74401,3.58264 0,3.2595 -3.68543,4.76866 -5.99797,2.45612 z"
         id="path19533" /><path
         style="fill:#ed4a37"
         d="m 257.64798,404.1489 c -10.83715,-2.7571 -14.11229,-12.62651 -4.92978,-14.85557 5.17982,-1.25739 6.07755,-2.8291 4.10918,-7.19417 -0.96811,-2.14687 -1.43422,-4.90753 -1.24145,-7.3528 0.37491,-4.75578 1.04671,-3.37436 2.6,5.34629 1.1783,6.61541 1.1783,6.61541 4.70652,7.35637 9.22854,1.93808 11.21188,2.69246 12.58389,4.78642 3.8155,5.82319 -8.75352,14.22221 -17.82836,11.91346 z m 11.57406,-36.32718 c 0.50233,-4.24147 -0.44083,-5.9983 -1.92821,-3.59167 -0.30472,0.49304 -0.9428,0.65617 -1.41797,0.3625 -1.07291,-0.6631 0.72955,-3.02305 2.30892,-3.02305 0.60889,0 1.6168,-0.61418 2.23979,-1.36483 3.0746,-3.70467 2.96204,6.12294 -0.11502,10.0427 -1.61667,2.05942 -1.61828,2.05583 -1.08751,-2.42565 z m -37.08255,-25.72144 c -2.46718,-1.94069 -3.0325,-5.04913 -1.24361,-6.83803 0.85261,-0.8526 0.82035,-1.4944 -0.15297,-3.04308 -3.81357,-6.06795 -2.48272,-12.05996 3.20653,-14.43708 1.71312,-0.71578 3.3114,-2.05338 3.55174,-2.97244 0.24034,-0.91905 1.43782,-2.32678 2.66106,-3.12828 2.22409,-1.45727 2.22409,-1.45727 -0.0819,-3.59551 -7.47457,-6.93081 -3.72391,-10.03046 13.24103,-10.94277 7.20462,-0.38743 14.687,-0.9624 16.62752,-1.2777 4.67083,-0.75895 7.32712,0.98231 5.81336,3.81079 -1.9876,3.71386 -17.89636,9.85209 -25.53417,9.85209 -4.43511,0 -4.7774,1.48358 -0.98858,4.28478 2.71086,2.00422 4.39138,1.88347 4.39138,-0.31553 0,-2.19367 1.67634,-2.32651 5.88202,-0.46614 4.13825,1.83055 4.13825,1.83055 0.67171,5.42113 -4.54158,4.70409 -7.01652,5.66624 -9.83124,3.82197 -2.71376,-1.77812 -4.87581,-1.0352 -4.50233,1.54708 0.39463,2.72854 2.70543,3.15835 17.52654,3.25988 14.70586,0.10075 17.93095,-1.31607 13.69647,-6.017 -4.3434,-4.82185 -0.0191,-11.79341 6.06891,-9.78419 2.48094,0.81879 3.31735,1.64074 3.72043,3.65612 0.43812,2.19063 1.14462,2.76693 4.48836,3.66124 5.83451,1.5605 7.53788,5.32877 4.69513,10.38676 -1.72885,3.07607 -1.86638,3.93393 -0.9755,6.08471 0.84017,2.02835 0.77887,3.00316 -0.32285,5.13364 -3.32742,6.43452 -11.59267,4.26345 -11.38704,-2.99108 0.0565,-1.992 -0.38024,-3.2866 -1.21699,-3.60769 -0.71779,-0.27544 -1.62709,-1.34779 -2.02068,-2.383 -1.10646,-2.91021 -34.43143,-3.42939 -34.43143,-0.53643 0,1.11961 -0.8304,2.13656 -2.15624,2.64064 -1.85979,0.70709 -2.08953,1.23093 -1.67098,3.81014 0.88226,5.43675 -5.18698,8.53512 -9.72568,4.96498 z m 61.23064,-32.95665 c -1.43347,-1.72722 -0.18265,-3.83007 4.23085,-7.11282 1.95671,-1.45539 4.47395,-4.16951 5.59387,-6.03137 7.7505,-12.88513 17.47218,-15.64825 17.47218,-4.96598 0,11.75461 -21.00555,25.69078 -27.2969,18.11017 z m -61.53409,-6.73361 c -1.07174,-0.40521 -2.94958,-2.71206 -4.17299,-5.12634 -2.80051,-5.52654 -3.32058,-5.82216 -7.9584,-4.52365 -4.92437,1.37874 -7.53034,0.16751 -7.53034,-3.50003 0,-4.95474 8.49968,-7.39628 12.34876,-3.5472 2.45152,2.45152 2.97057,2.25856 4.74537,-1.76411 2.92211,-6.62311 4.13811,-4.08561 1.29026,2.69247 -3.08451,7.34137 -2.5082,11.25509 2.06709,14.03748 2.86849,1.74444 2.33547,2.91298 -0.78975,1.73138 z m -30.24639,-36.85666 c 0,-2.61475 23.55931,-10.28145 35.72322,-11.62509 23.51237,-2.59721 45.41577,-2.73665 35.83023,-0.2281 -2.71012,0.70925 -4.55194,0.7399 -6.17438,0.10276 -7.66992,-3.01199 -44.83594,3.07933 -59.58087,9.765 -3.18901,1.44597 -5.7982,2.33941 -5.7982,1.98543 z m 114.22608,-0.66823 c -5.61898,-4.3521 -20.8733,-9.37106 -34.73618,-11.42885 -2.37973,-0.35324 -3.43761,-0.83729 -2.75368,-1.25999 2.21987,-1.37196 -5.27853,-5.2939 -10.12145,-5.2939 -2.81158,0 -8.00471,-3.48057 -10.10946,-6.77564 -1.18324,-1.85239 -3.51322,-4.82277 -5.17775,-6.60085 -2.971,-3.17367 -3.0089,-3.31094 -2.06982,-7.49746 0.52613,-2.34553 1.40713,-8.82924 1.95779,-14.40823 1.10912,-11.23712 1.1238,-11.2853 2.97088,-9.75236 1.81782,1.50866 3.39267,0.26602 2.77612,-2.1905 -0.66162,-2.63612 3.89051,-6.2844 6.2169,-4.98249 0.80362,0.44973 2.1986,0.62483 3.09995,0.38912 1.47098,-0.38467 1.63792,0.14661 1.6299,5.18716 -0.0141,8.89764 2.87736,15.88601 9.46952,22.88654 8.74404,9.28573 11.28997,23.7908 4.7781,27.2226 -2.99434,1.57804 -1.50041,2.40348 6.4896,3.58569 11.00311,1.62804 28.66677,9.03653 28.66677,12.02342 0,0.697 -1.41511,0.19083 -3.08719,-1.10426 z M 269.68427,111.77162 c -1.91228,-1.91228 -1.25336,-5.08548 1.25396,-6.03876 2.94394,-1.11928 4.74401,0.24012 4.74401,3.58264 0,3.2595 -3.68543,4.76866 -5.99797,2.45612 z"
         id="path19532" /><path
         style="fill:#dd3431"
         d="m 252.52605,401.12461 c -6.90872,-4.38511 -6.78185,-8.92116 0.31689,-11.32936 2.14505,-0.7277 4.2914,-1.57687 4.76967,-1.88705 2.07177,-1.34366 16.00915,2.34591 17.44191,4.6173 4.93024,7.81605 -12.98722,14.65514 -22.52847,8.59911 z m -13.32772,-68.78596 c -0.90351,-0.52671 -2.98736,-0.73945 -4.63078,-0.47276 -2.04918,0.33254 -2.98804,0.1415 -2.98804,-0.608 0,-0.69692 2.39686,-1.39894 6.61541,-1.93759 6.52991,-0.83379 6.61541,-0.81895 6.61541,1.14834 0,1.09618 -0.36446,1.99306 -0.80991,1.99306 -0.44545,0 -1.33854,0.18778 -1.98463,0.4173 -0.64609,0.22951 -1.91394,-0.0136 -2.81746,-0.54035 z m 41.05468,-2.08209 c -0.5526,-1.21283 -1.37568,-2.20514 -1.82907,-2.20514 -0.48035,0 -0.42505,-1.05785 0.13252,-2.53503 0.81159,-2.15016 0.66604,-2.90477 -0.95867,-4.97026 -2.51521,-3.19757 -2.38262,-5.78575 0.40032,-7.81394 2.95927,-2.1567 7.68386,-1.05571 8.10861,1.88958 0.31411,2.17813 3.27531,4.60911 5.61441,4.60911 2.11276,0 5.13043,3.43951 5.13043,5.84762 0,2.65333 -1.15048,3.21469 -3.9625,1.93345 -2.6563,-1.21029 -7.77759,0.90017 -9.36019,3.8573 -1.16254,2.17222 -2.08563,1.99957 -3.27586,-0.61269 z m -50.87017,-5.71966 c -0.99841,-1.61546 2.43535,-5.62299 5.59414,-6.52892 2.00496,-0.57502 2.77691,-1.32286 2.77691,-2.69018 0,-3.30626 5.81191,-5.31866 8.73842,-3.02572 4.38234,3.43359 3.99533,7.17052 -0.84283,8.13815 -1.51345,0.30269 -3.94535,1.40028 -5.40422,2.43909 -3.13116,2.22958 -9.87521,3.26492 -10.86242,1.66758 z m 13.31668,-16.65658 c -1.40351,-0.30645 -2.99121,-1.35103 -3.52822,-2.32129 -0.53701,-0.97026 -1.3733,-2.05051 -1.85843,-2.40054 -2.01155,-1.4514 1.05329,-3.77269 5.59632,-4.23863 4.06546,-0.41695 4.39268,-0.32618 3.17977,0.88206 -0.74363,0.74076 -2.41845,1.34684 -3.72182,1.34684 -1.41423,0 -2.47657,0.53972 -2.63464,1.33854 -0.31028,1.56803 3.95077,4.33335 6.33125,4.10883 0.90415,-0.0853 1.81893,0.34111 2.03286,0.94752 0.41362,1.17251 -1.12846,1.2687 -5.39709,0.33667 z m -10.86348,-5.4703 c -1.07174,-0.40521 -2.94958,-2.71206 -4.17299,-5.12634 -2.80051,-5.52654 -3.32058,-5.82216 -7.9584,-4.52365 -4.92437,1.37874 -7.53034,0.16751 -7.53034,-3.50003 0,-4.95474 8.49968,-7.39628 12.34876,-3.5472 2.45152,2.45152 2.97057,2.25856 4.74537,-1.76411 2.92211,-6.62311 4.13811,-4.08561 1.29026,2.69247 -3.08451,7.34137 -2.5082,11.25509 2.06709,14.03748 2.86849,1.74444 2.33547,2.91298 -0.78975,1.73138 z M 270.13311,111.3972 c -2.01571,-2.01571 0.62194,-6.10502 3.27991,-5.08506 2.16051,0.82906 1.48868,5.1172 -0.85426,5.45259 -0.99023,0.14174 -2.08177,-0.0236 -2.42565,-0.36753 z"
         id="path19531" /><path
         style="fill:#46534f"
         d="m 231.83604,302.41002 c -1.07174,-0.40521 -2.94958,-2.71206 -4.17299,-5.12634 -2.80051,-5.52654 -3.32058,-5.82216 -7.9584,-4.52365 -4.92437,1.37874 -7.53034,0.16751 -7.53034,-3.50003 0,-4.95474 8.49968,-7.39628 12.34876,-3.5472 2.45152,2.45152 2.97057,2.25856 4.74537,-1.76411 2.92211,-6.62311 4.13811,-4.08561 1.29026,2.69247 -3.08451,7.34137 -2.5082,11.25509 2.06709,14.03748 2.86849,1.74444 2.33547,2.91298 -0.78975,1.73138 z"
         id="path19530" /></g></g></svg>
